# Created by FreeCAD <https://www.freecad.org>
v -279.799988 -5152.500000 4959.968750
v -303.799988 -5152.500000 4959.968750
v -303.799988 -5120.500000 4959.968750
v -279.799988 -5120.500000 4959.968750
v -291.799988 -5152.500000 4974.368652
v -291.799988 -5120.500000 4974.368652
v 2721.699951 -2435.300049 5255.688965
v 2697.699951 -2435.300049 5255.688965
v 2697.699951 -2403.300049 5255.688965
v 2721.699951 -2403.300049 5255.688965
v 2709.699951 -2435.300049 5270.088867
v 2709.699951 -2403.300049 5270.088867
v 2142.600098 -1661.599976 6018.252930
v 2118.600098 -1661.599976 6018.252930
v 2118.600098 -1629.599976 6018.252930
v 2142.600098 -1629.599976 6018.252930
v 2130.600098 -1661.599976 6032.652832
v 2130.600098 -1629.599976 6032.652832
v 1754.000000 -1167.900024 6722.637695
v 1730.000000 -1167.900024 6722.637695
v 1730.000000 -1135.900024 6722.637695
v 1754.000000 -1135.900024 6722.637695
v 1742.000000 -1167.900024 6737.037598
v 1742.000000 -1135.900024 6737.037598
v 1573.800049 -774.500000 7224.125000
v 1549.800049 -774.500000 7224.125000
v 1549.800049 -742.500000 7224.125000
v 1573.800049 -742.500000 7224.125000
v 1561.800049 -774.500000 7238.524902
v 1561.800049 -742.500000 7238.524902
v 1011.500000 -262.100006 7903.518555
v 987.500000 -262.100006 7903.518555
v 987.500000 -230.100006 7903.518555
v 1011.500000 -230.100006 7903.518555
v 999.500000 -230.100006 7917.918457
v 999.500000 -262.100006 7917.918457
v 431.500000 -2566.100098 5960.858887
v 407.500000 -2566.100098 5960.858887
v 407.500000 -2534.100098 5960.858887
v 431.500000 -2534.100098 5960.858887
v 419.500000 -2566.100098 5975.258789
v 419.500000 -2534.100098 5975.258789
v 351.100006 -1858.599976 6402.710449
v 327.100006 -1858.599976 6402.710449
v 327.100006 -1826.599976 6402.710449
v 351.100006 -1826.599976 6402.710449
v 339.100006 -1858.599976 6417.110352
v 339.100006 -1826.599976 6417.110352
v 111.699997 -1376.699951 6997.861816
v 87.699997 -1376.699951 6997.861816
v 87.699997 -1344.699951 6997.861816
v 111.699997 -1344.699951 6997.861816
v 99.699997 -1376.699951 7012.261719
v 99.699997 -1344.699951 7012.261719
vn 0.000000 0.000000 -1.000000
vn 0.000000 0.000000 -1.000000
vn 0.768219 0.000000 0.640187
vn 0.768219 -0.000000 0.640187
vn -0.768219 0.000000 0.640187
vn -0.768219 0.000000 0.640187
vn 0.000000 -1.000000 0.000000
vn 0.000000 1.000000 0.000000
vn 0.000000 0.000000 -1.000000
vn 0.000000 0.000000 -1.000000
vn 0.768219 0.000000 0.640187
vn 0.768219 -0.000000 0.640187
vn -0.768219 0.000000 0.640187
vn -0.768219 0.000000 0.640187
vn 0.000000 -1.000000 0.000000
vn 0.000000 1.000000 0.000000
vn 0.000000 0.000000 -1.000000
vn 0.000000 0.000000 -1.000000
vn 0.768219 0.000000 0.640187
vn 0.768219 -0.000000 0.640187
vn -0.768219 0.000000 0.640187
vn -0.768219 0.000000 0.640187
vn 0.000000 -1.000000 0.000000
vn 0.000000 1.000000 0.000000
vn 0.000000 0.000000 -1.000000
vn 0.000000 0.000000 -1.000000
vn 0.768219 0.000000 0.640187
vn 0.768219 -0.000000 0.640187
vn -0.768219 0.000000 0.640187
vn -0.768219 0.000000 0.640187
vn 0.000000 -1.000000 0.000000
vn 0.000000 1.000000 0.000000
vn 0.000000 0.000000 -1.000000
vn 0.000000 0.000000 -1.000000
vn 0.768219 0.000000 0.640187
vn 0.768219 -0.000000 0.640187
vn -0.768219 0.000000 0.640187
vn -0.768219 0.000000 0.640187
vn 0.000000 -1.000000 0.000000
vn 0.000000 1.000000 0.000000
vn 0.000000 0.000000 -1.000000
vn 0.000000 0.000000 -1.000000
vn 0.768219 -0.000000 0.640187
vn 0.768219 -0.000000 0.640187
vn -0.768219 0.000000 0.640187
vn -0.768219 0.000000 0.640187
vn 0.000000 -1.000000 0.000000
vn 0.000000 1.000000 0.000000
vn 0.000000 0.000000 -1.000000
vn 0.000000 0.000000 -1.000000
vn 0.768219 0.000000 0.640187
vn 0.768219 -0.000000 0.640187
vn -0.768219 0.000000 0.640187
vn -0.768219 0.000000 0.640187
vn 0.000000 -1.000000 0.000000
vn 0.000000 1.000000 0.000000
vn 0.000000 0.000000 -1.000000
vn 0.000000 0.000000 -1.000000
vn 0.768219 0.000000 0.640187
vn 0.768219 -0.000000 0.640187
vn -0.768219 0.000000 0.640187
vn -0.768219 0.000000 0.640187
vn 0.000000 -1.000000 0.000000
vn 0.000000 1.000000 0.000000
vn 0.000000 0.000000 -1.000000
vn 0.000000 0.000000 -1.000000
vn 0.768219 0.000000 0.640187
vn 0.768219 -0.000000 0.640187
vn -0.768219 0.000000 0.640187
vn -0.768219 0.000000 0.640187
vn 0.000000 -1.000000 0.000000
vn 0.000000 1.000000 0.000000
f 1//1 2//1 3//1
f 1//2 3//2 4//2
f 5//3 1//3 4//3
f 5//4 4//4 6//4
f 2//5 5//5 6//5
f 2//6 6//6 3//6
f 1//7 5//7 2//7
f 6//8 4//8 3//8
f 7//9 8//9 9//9
f 7//10 9//10 10//10
f 11//11 7//11 10//11
f 11//12 10//12 12//12
f 8//13 11//13 12//13
f 8//14 12//14 9//14
f 7//15 11//15 8//15
f 12//16 10//16 9//16
f 13//17 14//17 15//17
f 13//18 15//18 16//18
f 17//19 13//19 16//19
f 17//20 16//20 18//20
f 14//21 17//21 18//21
f 14//22 18//22 15//22
f 13//23 17//23 14//23
f 18//24 16//24 15//24
f 19//25 20//25 21//25
f 19//26 21//26 22//26
f 23//27 19//27 22//27
f 23//28 22//28 24//28
f 20//29 23//29 24//29
f 20//30 24//30 21//30
f 19//31 23//31 20//31
f 24//32 22//32 21//32
f 25//33 26//33 27//33
f 25//34 27//34 28//34
f 29//35 25//35 28//35
f 29//36 28//36 30//36
f 26//37 29//37 30//37
f 26//38 30//38 27//38
f 25//39 29//39 26//39
f 30//40 28//40 27//40
f 31//41 32//41 33//41
f 31//42 33//42 34//42
f 31//43 34//43 35//43
f 36//44 31//44 35//44
f 36//45 35//45 33//45
f 32//46 36//46 33//46
f 31//47 36//47 32//47
f 35//48 34//48 33//48
f 37//49 38//49 39//49
f 37//50 39//50 40//50
f 41//51 37//51 40//51
f 41//52 40//52 42//52
f 38//53 41//53 42//53
f 38//54 42//54 39//54
f 37//55 41//55 38//55
f 42//56 40//56 39//56
f 43//57 44//57 45//57
f 43//58 45//58 46//58
f 47//59 43//59 46//59
f 47//60 46//60 48//60
f 44//61 47//61 48//61
f 44//62 48//62 45//62
f 43//63 47//63 44//63
f 48//64 46//64 45//64
f 49//65 50//65 51//65
f 49//66 51//66 52//66
f 53//67 49//67 52//67
f 53//68 52//68 54//68
f 50//69 53//69 54//69
f 50//70 54//70 51//70
f 49//71 53//71 50//71
f 54//72 52//72 51//72
