# Created by FreeCAD <https://www.freecad.org>
v 0.400000 0.000000 8586.064453
v 0.400000 -0.000000 8570.064453
v 0.393923 0.069459 8570.064453
v 0.393923 0.069459 8594.064453
v 0.400000 -0.000000 8594.064453
v 0.375877 0.136808 8594.064453
v 0.375877 0.136808 8570.064453
v 0.346410 0.200000 8570.064453
v 0.346410 0.200000 8594.064453
v 0.306418 0.257115 8594.064453
v 0.306418 0.257115 8570.064453
v 0.257115 0.306418 8570.064453
v 0.257115 0.306418 8594.064453
v 0.200000 0.346410 8594.064453
v 0.200000 0.346410 8570.064453
v 0.136808 0.375877 8594.064453
v 0.136808 0.375877 8570.064453
v 0.069459 0.393923 8594.064453
v 0.069459 0.393923 8570.064453
v 0.000000 0.400000 8570.064453
v 0.000000 0.400000 8594.064453
v -0.069459 0.393923 8594.064453
v -0.069459 0.393923 8570.064453
v -0.136808 0.375877 8570.064453
v -0.136808 0.375877 8594.064453
v -0.200000 0.346410 8594.064453
v -0.200000 0.346410 8570.064453
v -0.257115 0.306418 8594.064453
v -0.257115 0.306418 8570.064453
v -0.306418 0.257115 8594.064453
v -0.306418 0.257115 8570.064453
v -0.346410 0.200000 8594.064453
v -0.346410 0.200000 8570.064453
v -0.375877 0.136808 8594.064453
v -0.375877 0.136808 8570.064453
v -0.393923 0.069459 8594.064453
v -0.393923 0.069459 8570.064453
v -0.400000 0.000000 8594.064453
v -0.400000 0.000000 8570.064453
v -0.393923 -0.069459 8594.064453
v -0.393923 -0.069459 8570.064453
v -0.375877 -0.136808 8594.064453
v -0.375877 -0.136808 8570.064453
v -0.346410 -0.200000 8570.064453
v -0.346410 -0.200000 8594.064453
v -0.306418 -0.257115 8594.064453
v -0.306418 -0.257115 8570.064453
v -0.257115 -0.306418 8570.064453
v -0.257115 -0.306418 8594.064453
v -0.200000 -0.346410 8594.064453
v -0.200000 -0.346410 8570.064453
v -0.136808 -0.375877 8594.064453
v -0.136808 -0.375877 8570.064453
v -0.069459 -0.393923 8570.064453
v -0.069459 -0.393923 8594.064453
v -0.000000 -0.400000 8570.064453
v -0.000000 -0.400000 8594.064453
v 0.069459 -0.393923 8594.064453
v 0.069459 -0.393923 8570.064453
v 0.136808 -0.375877 8570.064453
v 0.136808 -0.375877 8594.064453
v 0.200000 -0.346410 8594.064453
v 0.200000 -0.346410 8570.064453
v 0.257115 -0.306418 8570.064453
v 0.257115 -0.306418 8594.064453
v 0.306418 -0.257115 8570.064453
v 0.306418 -0.257115 8594.064453
v 0.346410 -0.200000 8594.064453
v 0.346410 -0.200000 8570.064453
v 0.375877 -0.136808 8570.064453
v 0.375877 -0.136808 8594.064453
v 0.393923 -0.069459 8594.064453
v 0.393923 -0.069459 8570.064453
v 0.400000 0.320000 8586.064453
v 0.400000 0.320000 8594.064453
v 13.200000 0.000000 8586.064453
v 13.200000 0.000000 8594.064453
v 13.200000 0.320000 8594.064453
v 13.200000 0.320000 8586.064453
vn 0.996195 0.087156 -0.000000
vn 0.996195 0.087156 0.000000
vn 0.996195 0.087156 0.000000
vn 0.965926 0.258819 0.000000
vn 0.906308 0.422618 0.000000
vn 0.965926 0.258819 0.000000
vn 0.906308 0.422618 0.000000
vn 0.819152 0.573577 0.000000
vn 0.707107 0.707107 0.000000
vn 0.819152 0.573577 0.000000
vn 0.707107 0.707107 0.000000
vn 0.573577 0.819152 0.000000
vn 0.573577 0.819152 0.000000
vn 0.422618 0.906308 0.000000
vn 0.422618 0.906308 0.000000
vn 0.258819 0.965926 0.000000
vn 0.258819 0.965926 0.000000
vn 0.087156 0.996195 0.000000
vn 0.087156 0.996195 0.000000
vn -0.087156 0.996195 0.000000
vn -0.087156 0.996195 0.000000
vn -0.258819 0.965926 0.000000
vn -0.258819 0.965926 0.000000
vn -0.422618 0.906308 0.000000
vn -0.422618 0.906308 0.000000
vn -0.573577 0.819152 0.000000
vn -0.573577 0.819152 0.000000
vn -0.707107 0.707107 0.000000
vn -0.707107 0.707107 0.000000
vn -0.819152 0.573577 0.000000
vn -0.819152 0.573577 0.000000
vn -0.906308 0.422618 0.000000
vn -0.906308 0.422618 0.000000
vn -0.965926 0.258819 0.000000
vn -0.965926 0.258819 0.000000
vn -0.996195 0.087156 0.000000
vn -0.996195 0.087156 0.000000
vn -0.996195 -0.087156 -0.000000
vn -0.996195 -0.087156 0.000000
vn -0.965926 -0.258819 0.000000
vn -0.965926 -0.258819 -0.000000
vn -0.906308 -0.422618 -0.000000
vn -0.906308 -0.422618 -0.000000
vn -0.819152 -0.573577 -0.000000
vn -0.707107 -0.707107 -0.000000
vn -0.819152 -0.573577 0.000000
vn -0.707107 -0.707107 -0.000000
vn -0.573577 -0.819152 -0.000000
vn -0.573577 -0.819152 0.000000
vn -0.422618 -0.906308 -0.000000
vn -0.258819 -0.965926 -0.000000
vn -0.422618 -0.906308 0.000000
vn -0.087156 -0.996195 -0.000000
vn -0.258819 -0.965926 -0.000000
vn -0.087156 -0.996195 -0.000000
vn 0.087156 -0.996195 0.000000
vn 0.258819 -0.965926 0.000000
vn 0.087156 -0.996195 0.000000
vn 0.258819 -0.965926 0.000000
vn 0.422618 -0.906308 0.000000
vn 0.422618 -0.906308 0.000000
vn 0.573577 -0.819152 0.000000
vn 0.573577 -0.819152 0.000000
vn 0.707107 -0.707107 0.000000
vn 0.707107 -0.707107 0.000000
vn 0.819152 -0.573577 0.000000
vn 0.819152 -0.573577 0.000000
vn 0.906308 -0.422618 0.000000
vn 0.906308 -0.422618 0.000000
vn 0.965926 -0.258819 0.000000
vn 0.965926 -0.258819 0.000000
vn 0.996195 -0.087156 0.000000
vn 0.996195 -0.087156 0.000000
vn 0.996195 -0.087156 -0.000000
vn 0.000000 0.000000 1.000000
vn 0.000000 0.000000 1.000000
vn 0.000000 0.000000 1.000000
vn 0.000000 0.000000 1.000000
vn 0.000000 0.000000 1.000000
vn 0.000000 0.000000 1.000000
vn 0.000000 0.000000 1.000000
vn 0.000000 0.000000 1.000000
vn 0.000000 0.000000 1.000000
vn 0.000000 0.000000 1.000000
vn 0.000000 0.000000 1.000000
vn 0.000000 0.000000 1.000000
vn 0.000000 0.000000 1.000000
vn 0.000000 0.000000 1.000000
vn 0.000000 0.000000 1.000000
vn 0.000000 0.000000 1.000000
vn 0.000000 0.000000 1.000000
vn 0.000000 0.000000 1.000000
vn 0.000000 0.000000 1.000000
vn 0.000000 0.000000 1.000000
vn 0.000000 0.000000 1.000000
vn 0.000000 0.000000 1.000000
vn 0.000000 0.000000 1.000000
vn 0.000000 0.000000 1.000000
vn 0.000000 0.000000 1.000000
vn 0.000000 0.000000 1.000000
vn 0.000000 0.000000 1.000000
vn 0.000000 0.000000 1.000000
vn 0.000000 0.000000 1.000000
vn 0.000000 0.000000 1.000000
vn 0.000000 0.000000 1.000000
vn 0.000000 0.000000 1.000000
vn 0.000000 0.000000 1.000000
vn 0.000000 0.000000 1.000000
vn 0.000000 0.000000 -1.000000
vn 0.000000 -0.000000 -1.000000
vn 0.000000 -0.000000 -1.000000
vn 0.000000 0.000000 -1.000000
vn 0.000000 0.000000 -1.000000
vn 0.000000 0.000000 -1.000000
vn 0.000000 0.000000 -1.000000
vn -0.000000 -0.000000 -1.000000
vn -0.000000 -0.000000 -1.000000
vn -0.000000 -0.000000 -1.000000
vn 0.000000 -0.000000 -1.000000
vn 0.000000 -0.000000 -1.000000
vn 0.000000 -0.000000 -1.000000
vn 0.000000 -0.000000 -1.000000
vn 0.000000 -0.000000 -1.000000
vn 0.000000 -0.000000 -1.000000
vn 0.000000 0.000000 -1.000000
vn 0.000000 0.000000 -1.000000
vn 0.000000 0.000000 -1.000000
vn 0.000000 0.000000 -1.000000
vn 0.000000 0.000000 -1.000000
vn 0.000000 0.000000 -1.000000
vn 0.000000 0.000000 -1.000000
vn 0.000000 0.000000 -1.000000
vn 0.000000 0.000000 -1.000000
vn 0.000000 0.000000 -1.000000
vn 0.000000 0.000000 -1.000000
vn 0.000000 0.000000 -1.000000
vn 0.000000 0.000000 -1.000000
vn 0.000000 0.000000 -1.000000
vn 0.000000 0.000000 -1.000000
vn 0.000000 0.000000 -1.000000
vn 0.000000 0.000000 -1.000000
vn 0.000000 -0.000000 -1.000000
vn -1.000000 0.000000 0.000000
vn -1.000000 0.000000 0.000000
vn 0.000000 -1.000000 0.000000
vn 0.000000 -1.000000 -0.000000
vn 0.000000 0.000000 1.000000
vn 0.000000 0.000000 1.000000
vn 0.000000 1.000000 0.000000
vn 0.000000 1.000000 0.000000
vn 0.000000 0.000000 -1.000000
vn 0.000000 0.000000 -1.000000
vn 1.000000 0.000000 0.000000
vn 1.000000 -0.000000 0.000000
f 1//1 2//1 3//1
f 4//2 5//2 1//2
f 4//3 1//3 3//3
f 6//4 3//4 7//4
f 6//5 7//5 8//5
f 6//6 4//6 3//6
f 9//7 6//7 8//7
f 10//8 8//8 11//8
f 10//9 11//9 12//9
f 10//10 9//10 8//10
f 13//11 10//11 12//11
f 14//12 13//12 12//12
f 14//13 12//13 15//13
f 16//14 14//14 15//14
f 16//15 15//15 17//15
f 18//16 16//16 17//16
f 18//17 17//17 19//17
f 18//18 19//18 20//18
f 21//19 18//19 20//19
f 22//20 21//20 20//20
f 22//21 20//21 23//21
f 22//22 23//22 24//22
f 25//23 22//23 24//23
f 26//24 25//24 24//24
f 26//25 24//25 27//25
f 28//26 26//26 27//26
f 28//27 27//27 29//27
f 30//28 28//28 29//28
f 30//29 29//29 31//29
f 32//30 30//30 31//30
f 32//31 31//31 33//31
f 34//32 32//32 33//32
f 34//33 33//33 35//33
f 36//34 34//34 35//34
f 36//35 35//35 37//35
f 38//36 37//36 39//36
f 38//37 36//37 37//37
f 40//38 39//38 41//38
f 40//39 38//39 39//39
f 42//40 40//40 41//40
f 42//41 41//41 43//41
f 42//42 43//42 44//42
f 45//43 42//43 44//43
f 46//44 44//44 47//44
f 46//45 47//45 48//45
f 46//46 45//46 44//46
f 49//47 46//47 48//47
f 50//48 48//48 51//48
f 50//49 49//49 48//49
f 52//50 51//50 53//50
f 52//51 53//51 54//51
f 52//52 50//52 51//52
f 55//53 54//53 56//53
f 55//54 52//54 54//54
f 57//55 55//55 56//55
f 58//56 56//56 59//56
f 58//57 59//57 60//57
f 58//58 57//58 56//58
f 61//59 58//59 60//59
f 62//60 61//60 60//60
f 62//61 60//61 63//61
f 62//62 63//62 64//62
f 65//63 62//63 64//63
f 65//64 64//64 66//64
f 67//65 65//65 66//65
f 68//66 67//66 66//66
f 68//67 66//67 69//67
f 68//68 69//68 70//68
f 71//69 68//69 70//69
f 72//70 71//70 70//70
f 72//71 70//71 73//71
f 1//72 72//72 73//72
f 1//73 73//73 2//73
f 5//74 72//74 1//74
f 62//75 58//75 61//75
f 26//76 28//76 30//76
f 26//77 30//77 32//77
f 13//78 5//78 4//78
f 13//79 4//79 6//79
f 13//80 6//80 9//80
f 13//81 9//81 10//81
f 13//82 14//82 16//82
f 13//83 16//83 18//83
f 13//84 18//84 21//84
f 13//85 21//85 22//85
f 13//86 22//86 25//86
f 13//87 25//87 26//87
f 13//88 32//88 34//88
f 13//89 34//89 36//89
f 13//90 36//90 38//90
f 13//91 38//91 40//91
f 13//92 40//92 42//92
f 13//93 42//93 45//93
f 13//94 45//94 46//94
f 13//95 46//95 49//95
f 13//96 49//96 50//96
f 13//97 50//97 52//97
f 13//98 52//98 55//98
f 13//99 55//99 57//99
f 13//100 57//100 58//100
f 13//101 62//101 65//101
f 13//102 65//102 67//102
f 13//103 67//103 68//103
f 13//104 68//104 71//104
f 13//105 71//105 72//105
f 13//106 72//106 5//106
f 13//107 58//107 62//107
f 13//108 26//108 32//108
f 59//109 63//109 60//109
f 29//110 27//110 31//110
f 31//111 27//111 33//111
f 2//112 12//112 3//112
f 3//113 12//113 7//113
f 7//114 12//114 8//114
f 8//115 12//115 11//115
f 15//116 12//116 17//116
f 17//117 12//117 19//117
f 19//118 12//118 20//118
f 20//119 12//119 23//119
f 23//120 12//120 24//120
f 24//121 12//121 27//121
f 33//122 12//122 35//122
f 35//123 12//123 37//123
f 37//124 12//124 39//124
f 39//125 12//125 41//125
f 41//126 12//126 43//126
f 43//127 12//127 44//127
f 44//128 12//128 47//128
f 47//129 12//129 48//129
f 48//130 12//130 51//130
f 51//131 12//131 53//131
f 53//132 12//132 54//132
f 54//133 12//133 56//133
f 56//134 12//134 59//134
f 63//135 12//135 64//135
f 64//136 12//136 66//136
f 66//137 12//137 69//137
f 69//138 12//138 70//138
f 70//139 12//139 73//139
f 73//140 12//140 2//140
f 59//141 12//141 63//141
f 27//142 12//142 33//142
f 1//143 5//143 74//143
f 74//144 5//144 75//144
f 76//145 77//145 1//145
f 1//146 77//146 5//146
f 77//147 75//147 5//147
f 78//148 75//148 77//148
f 78//149 79//149 74//149
f 78//150 74//150 75//150
f 74//151 76//151 1//151
f 74//152 79//152 76//152
f 77//153 76//153 79//153
f 77//154 79//154 78//154
